solid CATIA STL
  facet normal  0.000000e+000  1.000000e+000  0.000000e+000
    outer loop
      vertex  5.000000e+001  1.000000e+002  0.000000e+000
      vertex -5.000000e+001  1.000000e+002  0.000000e+000
      vertex  6.508256e-001  1.000000e+002  2.864855e+001
    endloop
  endfacet
  facet normal  -0.000000e+000  1.000000e+000  0.000000e+000
    outer loop
      vertex  5.000000e+001  1.000000e+002  0.000000e+000
      vertex  6.508256e-001  1.000000e+002  2.864855e+001
      vertex  9.352347e-001  1.000000e+002  2.882725e+001
    endloop
  endfacet
  facet normal  -0.000000e+000  1.000000e+000  0.000000e+000
    outer loop
      vertex  5.000000e+001  1.000000e+002  0.000000e+000
      vertex  9.352347e-001  1.000000e+002  2.882725e+001
      vertex  1.172747e+000  1.000000e+002  2.906477e+001
    endloop
  endfacet
  facet normal  -0.000000e+000  1.000000e+000  0.000000e+000
    outer loop
      vertex  5.000000e+001  1.000000e+002  0.000000e+000
      vertex  1.172747e+000  1.000000e+002  2.906477e+001
      vertex  1.351453e+000  1.000000e+002  2.934917e+001
    endloop
  endfacet
  facet normal  -0.000000e+000  1.000000e+000  0.000000e+000
    outer loop
      vertex  5.000000e+001  1.000000e+002  0.000000e+000
      vertex  1.351453e+000  1.000000e+002  2.934917e+001
      vertex  1.462392e+000  1.000000e+002  2.966622e+001
    endloop
  endfacet
  facet normal  -0.000000e+000  1.000000e+000  0.000000e+000
    outer loop
      vertex  5.000000e+001  1.000000e+002  0.000000e+000
      vertex  1.462392e+000  1.000000e+002  2.966622e+001
      vertex  1.500000e+000  1.000000e+002  3.000000e+001
    endloop
  endfacet
  facet normal  -0.000000e+000  1.000000e+000  -0.000000e+000
    outer loop
      vertex  5.000000e+001  1.000000e+002  0.000000e+000
      vertex  1.500000e+000  1.000000e+002  3.000000e+001
      vertex  1.462392e+000  1.000000e+002  3.033378e+001
    endloop
  endfacet
  facet normal  -0.000000e+000  1.000000e+000  -0.000000e+000
    outer loop
      vertex  5.000000e+001  1.000000e+002  0.000000e+000
      vertex  1.462392e+000  1.000000e+002  3.033378e+001
      vertex  1.351453e+000  1.000000e+002  3.065083e+001
    endloop
  endfacet
  facet normal  -0.000000e+000  1.000000e+000  -0.000000e+000
    outer loop
      vertex  5.000000e+001  1.000000e+002  0.000000e+000
      vertex  1.351453e+000  1.000000e+002  3.065083e+001
      vertex  1.172747e+000  1.000000e+002  3.093523e+001
    endloop
  endfacet
  facet normal  -0.000000e+000  1.000000e+000  -0.000000e+000
    outer loop
      vertex  5.000000e+001  1.000000e+002  0.000000e+000
      vertex  1.172747e+000  1.000000e+002  3.093523e+001
      vertex  9.352347e-001  1.000000e+002  3.117275e+001
    endloop
  endfacet
  facet normal  0.000000e+000  9.999999e-001  -0.000000e+000
    outer loop
      vertex  5.000000e+001  1.000000e+002  4.000000e+001
      vertex  5.000000e+001  1.000000e+002  0.000000e+000
      vertex  9.352347e-001  1.000000e+002  3.117275e+001
    endloop
  endfacet
  facet normal  0.000000e+000  1.000000e+000  -0.000000e+000
    outer loop
      vertex  5.000000e+001  1.000000e+002  4.000000e+001
      vertex  9.352347e-001  1.000000e+002  3.117275e+001
      vertex  6.508256e-001  1.000000e+002  3.135145e+001
    endloop
  endfacet
  facet normal  0.000000e+000  1.000000e+000  -0.000000e+000
    outer loop
      vertex  5.000000e+001  1.000000e+002  4.000000e+001
      vertex  6.508256e-001  1.000000e+002  3.135145e+001
      vertex  3.337814e-001  1.000000e+002  3.146239e+001
    endloop
  endfacet
  facet normal  0.000000e+000  1.000000e+000  -0.000000e+000
    outer loop
      vertex  5.000000e+001  1.000000e+002  4.000000e+001
      vertex  3.337814e-001  1.000000e+002  3.146239e+001
      vertex -5.000000e+001  1.000000e+002  4.000000e+001
    endloop
  endfacet
  facet normal  0.000000e+000  1.000000e+000  0.000000e+000
    outer loop
      vertex -5.000000e+001  1.000000e+002  0.000000e+000
      vertex -5.000000e+001  1.000000e+002  4.000000e+001
      vertex -1.500000e+000  1.000000e+002  3.000000e+001
    endloop
  endfacet
  facet normal  0.000000e+000  1.000000e+000  0.000000e+000
    outer loop
      vertex -5.000000e+001  1.000000e+002  0.000000e+000
      vertex -1.500000e+000  1.000000e+002  3.000000e+001
      vertex -1.462392e+000  1.000000e+002  2.966622e+001
    endloop
  endfacet
  facet normal  0.000000e+000  1.000000e+000  0.000000e+000
    outer loop
      vertex -5.000000e+001  1.000000e+002  0.000000e+000
      vertex -1.462392e+000  1.000000e+002  2.966622e+001
      vertex -1.351453e+000  1.000000e+002  2.934917e+001
    endloop
  endfacet
  facet normal  0.000000e+000  1.000000e+000  0.000000e+000
    outer loop
      vertex -5.000000e+001  1.000000e+002  0.000000e+000
      vertex -1.351453e+000  1.000000e+002  2.934917e+001
      vertex -1.172747e+000  1.000000e+002  2.906477e+001
    endloop
  endfacet
  facet normal  0.000000e+000  1.000000e+000  0.000000e+000
    outer loop
      vertex -5.000000e+001  1.000000e+002  0.000000e+000
      vertex -1.172747e+000  1.000000e+002  2.906477e+001
      vertex -9.352347e-001  1.000000e+002  2.882725e+001
    endloop
  endfacet
  facet normal  0.000000e+000  1.000000e+000  0.000000e+000
    outer loop
      vertex -5.000000e+001  1.000000e+002  0.000000e+000
      vertex -9.352347e-001  1.000000e+002  2.882725e+001
      vertex -6.508256e-001  1.000000e+002  2.864855e+001
    endloop
  endfacet
  facet normal  0.000000e+000  1.000000e+000  0.000000e+000
    outer loop
      vertex -5.000000e+001  1.000000e+002  0.000000e+000
      vertex -6.508256e-001  1.000000e+002  2.864855e+001
      vertex -3.337814e-001  1.000000e+002  2.853761e+001
    endloop
  endfacet
  facet normal  0.000000e+000  1.000000e+000  0.000000e+000
    outer loop
      vertex -5.000000e+001  1.000000e+002  0.000000e+000
      vertex -3.337814e-001  1.000000e+002  2.853761e+001
      vertex  0.000000e+000  1.000000e+002  2.850000e+001
    endloop
  endfacet
  facet normal  -0.000000e+000  1.000000e+000  0.000000e+000
    outer loop
      vertex -5.000000e+001  1.000000e+002  0.000000e+000
      vertex  0.000000e+000  1.000000e+002  2.850000e+001
      vertex  3.337814e-001  1.000000e+002  2.853761e+001
    endloop
  endfacet
  facet normal  -0.000000e+000  9.999999e-001  0.000000e+000
    outer loop
      vertex -5.000000e+001  1.000000e+002  0.000000e+000
      vertex  3.337814e-001  1.000000e+002  2.853761e+001
      vertex  6.508256e-001  1.000000e+002  2.864855e+001
    endloop
  endfacet
  facet normal  0.000000e+000  1.000000e+000  0.000000e+000
    outer loop
      vertex -5.000000e+001  1.000000e+002  4.000000e+001
      vertex  3.337814e-001  1.000000e+002  3.146239e+001
      vertex  0.000000e+000  1.000000e+002  3.150000e+001
    endloop
  endfacet
  facet normal  0.000000e+000  1.000000e+000  0.000000e+000
    outer loop
      vertex -5.000000e+001  1.000000e+002  4.000000e+001
      vertex  0.000000e+000  1.000000e+002  3.150000e+001
      vertex -3.337814e-001  1.000000e+002  3.146239e+001
    endloop
  endfacet
  facet normal  0.000000e+000  1.000000e+000  0.000000e+000
    outer loop
      vertex -5.000000e+001  1.000000e+002  4.000000e+001
      vertex -3.337814e-001  1.000000e+002  3.146239e+001
      vertex -6.508256e-001  1.000000e+002  3.135145e+001
    endloop
  endfacet
  facet normal  0.000000e+000  1.000000e+000  0.000000e+000
    outer loop
      vertex -5.000000e+001  1.000000e+002  4.000000e+001
      vertex -6.508256e-001  1.000000e+002  3.135145e+001
      vertex -9.352347e-001  1.000000e+002  3.117275e+001
    endloop
  endfacet
  facet normal  0.000000e+000  9.999999e-001  0.000000e+000
    outer loop
      vertex -5.000000e+001  1.000000e+002  4.000000e+001
      vertex -9.352347e-001  1.000000e+002  3.117275e+001
      vertex -1.172747e+000  1.000000e+002  3.093523e+001
    endloop
  endfacet
  facet normal  0.000000e+000  1.000000e+000  0.000000e+000
    outer loop
      vertex -5.000000e+001  1.000000e+002  4.000000e+001
      vertex -1.172747e+000  1.000000e+002  3.093523e+001
      vertex -1.351453e+000  1.000000e+002  3.065083e+001
    endloop
  endfacet
  facet normal  0.000000e+000  1.000000e+000  0.000000e+000
    outer loop
      vertex -5.000000e+001  1.000000e+002  4.000000e+001
      vertex -1.351453e+000  1.000000e+002  3.065083e+001
      vertex -1.462392e+000  1.000000e+002  3.033378e+001
    endloop
  endfacet
  facet normal  0.000000e+000  1.000000e+000  0.000000e+000
    outer loop
      vertex -5.000000e+001  1.000000e+002  4.000000e+001
      vertex -1.462392e+000  1.000000e+002  3.033378e+001
      vertex -1.500000e+000  1.000000e+002  3.000000e+001
    endloop
  endfacet
  facet normal  0.000000e+000 -1.000000e+000  -0.000000e+000
    outer loop
      vertex  5.000000e+000  9.800000e+001  2.000000e+000
      vertex  5.000000e+000  9.800000e+001  4.000000e+001
      vertex  1.500000e+000  9.800000e+001  3.000000e+001
    endloop
  endfacet
  facet normal  0.000000e+000 -1.000000e+000  -0.000000e+000
    outer loop
      vertex  5.000000e+000  9.800000e+001  2.000000e+000
      vertex  1.500000e+000  9.800000e+001  3.000000e+001
      vertex  1.462392e+000  9.800000e+001  2.966622e+001
    endloop
  endfacet
  facet normal  0.000000e+000 -9.999999e-001  -0.000000e+000
    outer loop
      vertex  5.000000e+000  9.800000e+001  2.000000e+000
      vertex  1.462392e+000  9.800000e+001  2.966622e+001
      vertex -5.000000e+000  9.800000e+001  2.000000e+000
    endloop
  endfacet
  facet normal  0.000000e+000 -1.000000e+000  0.000000e+000
    outer loop
      vertex -5.000000e+000  9.800000e+001  2.000000e+000
      vertex  1.462392e+000  9.800000e+001  2.966622e+001
      vertex  1.351453e+000  9.800000e+001  2.934917e+001
    endloop
  endfacet
  facet normal  0.000000e+000 -1.000000e+000  0.000000e+000
    outer loop
      vertex -5.000000e+000  9.800000e+001  2.000000e+000
      vertex  1.351453e+000  9.800000e+001  2.934917e+001
      vertex  1.172747e+000  9.800000e+001  2.906477e+001
    endloop
  endfacet
  facet normal  0.000000e+000 -1.000000e+000  0.000000e+000
    outer loop
      vertex -5.000000e+000  9.800000e+001  2.000000e+000
      vertex  1.172747e+000  9.800000e+001  2.906477e+001
      vertex  9.352347e-001  9.800000e+001  2.882725e+001
    endloop
  endfacet
  facet normal  0.000000e+000 -1.000000e+000  0.000000e+000
    outer loop
      vertex -5.000000e+000  9.800000e+001  2.000000e+000
      vertex  9.352347e-001  9.800000e+001  2.882725e+001
      vertex  6.508256e-001  9.800000e+001  2.864855e+001
    endloop
  endfacet
  facet normal  0.000000e+000 -1.000000e+000  0.000000e+000
    outer loop
      vertex -5.000000e+000  9.800000e+001  2.000000e+000
      vertex  6.508256e-001  9.800000e+001  2.864855e+001
      vertex  3.337814e-001  9.800000e+001  2.853761e+001
    endloop
  endfacet
  facet normal  0.000000e+000 -1.000000e+000  0.000000e+000
    outer loop
      vertex -5.000000e+000  9.800000e+001  2.000000e+000
      vertex  3.337814e-001  9.800000e+001  2.853761e+001
      vertex  0.000000e+000  9.800000e+001  2.850000e+001
    endloop
  endfacet
  facet normal  -0.000000e+000 -1.000000e+000  0.000000e+000
    outer loop
      vertex -5.000000e+000  9.800000e+001  2.000000e+000
      vertex  0.000000e+000  9.800000e+001  2.850000e+001
      vertex -3.337814e-001  9.800000e+001  2.853761e+001
    endloop
  endfacet
  facet normal  -0.000000e+000 -1.000000e+000  0.000000e+000
    outer loop
      vertex -5.000000e+000  9.800000e+001  2.000000e+000
      vertex -3.337814e-001  9.800000e+001  2.853761e+001
      vertex -6.508256e-001  9.800000e+001  2.864855e+001
    endloop
  endfacet
  facet normal  -0.000000e+000 -1.000000e+000  0.000000e+000
    outer loop
      vertex -5.000000e+000  9.800000e+001  2.000000e+000
      vertex -6.508256e-001  9.800000e+001  2.864855e+001
      vertex -9.352347e-001  9.800000e+001  2.882725e+001
    endloop
  endfacet
  facet normal  -0.000000e+000 -1.000000e+000  0.000000e+000
    outer loop
      vertex -5.000000e+000  9.800000e+001  2.000000e+000
      vertex -9.352347e-001  9.800000e+001  2.882725e+001
      vertex -1.172747e+000  9.800000e+001  2.906477e+001
    endloop
  endfacet
  facet normal  -0.000000e+000 -1.000000e+000  0.000000e+000
    outer loop
      vertex -5.000000e+000  9.800000e+001  2.000000e+000
      vertex -1.172747e+000  9.800000e+001  2.906477e+001
      vertex -1.351453e+000  9.800000e+001  2.934917e+001
    endloop
  endfacet
  facet normal  -0.000000e+000 -1.000000e+000  0.000000e+000
    outer loop
      vertex -5.000000e+000  9.800000e+001  2.000000e+000
      vertex -1.351453e+000  9.800000e+001  2.934917e+001
      vertex -1.462392e+000  9.800000e+001  2.966622e+001
    endloop
  endfacet
  facet normal  -0.000000e+000 -1.000000e+000  0.000000e+000
    outer loop
      vertex -5.000000e+000  9.800000e+001  2.000000e+000
      vertex -1.462392e+000  9.800000e+001  2.966622e+001
      vertex -1.500000e+000  9.800000e+001  3.000000e+001
    endloop
  endfacet
  facet normal  -0.000000e+000 -1.000000e+000  0.000000e+000
    outer loop
      vertex -5.000000e+000  9.800000e+001  2.000000e+000
      vertex -1.500000e+000  9.800000e+001  3.000000e+001
      vertex -5.000000e+000  9.800000e+001  4.000000e+001
    endloop
  endfacet
  facet normal  0.000000e+000 -1.000000e+000  0.000000e+000
    outer loop
      vertex -5.000000e+000  9.800000e+001  4.000000e+001
      vertex -1.500000e+000  9.800000e+001  3.000000e+001
      vertex -1.462392e+000  9.800000e+001  3.033378e+001
    endloop
  endfacet
  facet normal  0.000000e+000 -1.000000e+000  0.000000e+000
    outer loop
      vertex -5.000000e+000  9.800000e+001  4.000000e+001
      vertex -1.462392e+000  9.800000e+001  3.033378e+001
      vertex -1.351453e+000  9.800000e+001  3.065083e+001
    endloop
  endfacet
  facet normal  0.000000e+000 -9.999999e-001  0.000000e+000
    outer loop
      vertex -5.000000e+000  9.800000e+001  4.000000e+001
      vertex -1.351453e+000  9.800000e+001  3.065083e+001
      vertex -1.172747e+000  9.800000e+001  3.093523e+001
    endloop
  endfacet
  facet normal  0.000000e+000 -1.000000e+000  0.000000e+000
    outer loop
      vertex -5.000000e+000  9.800000e+001  4.000000e+001
      vertex -1.172747e+000  9.800000e+001  3.093523e+001
      vertex -9.352347e-001  9.800000e+001  3.117275e+001
    endloop
  endfacet
  facet normal  0.000000e+000 -9.999999e-001  0.000000e+000
    outer loop
      vertex -5.000000e+000  9.800000e+001  4.000000e+001
      vertex -9.352347e-001  9.800000e+001  3.117275e+001
      vertex -6.508256e-001  9.800000e+001  3.135145e+001
    endloop
  endfacet
  facet normal  0.000000e+000 -1.000000e+000  0.000000e+000
    outer loop
      vertex -5.000000e+000  9.800000e+001  4.000000e+001
      vertex -6.508256e-001  9.800000e+001  3.135145e+001
      vertex -3.337814e-001  9.800000e+001  3.146239e+001
    endloop
  endfacet
  facet normal  0.000000e+000 -1.000000e+000  0.000000e+000
    outer loop
      vertex -5.000000e+000  9.800000e+001  4.000000e+001
      vertex -3.337814e-001  9.800000e+001  3.146239e+001
      vertex  0.000000e+000  9.800000e+001  3.150000e+001
    endloop
  endfacet
  facet normal  0.000000e+000 -1.000000e+000  0.000000e+000
    outer loop
      vertex -5.000000e+000  9.800000e+001  4.000000e+001
      vertex  0.000000e+000  9.800000e+001  3.150000e+001
      vertex  3.337814e-001  9.800000e+001  3.146239e+001
    endloop
  endfacet
  facet normal  0.000000e+000 -1.000000e+000  0.000000e+000
    outer loop
      vertex -5.000000e+000  9.800000e+001  4.000000e+001
      vertex  3.337814e-001  9.800000e+001  3.146239e+001
      vertex  6.508256e-001  9.800000e+001  3.135145e+001
    endloop
  endfacet
  facet normal  0.000000e+000 -9.999999e-001  0.000000e+000
    outer loop
      vertex -5.000000e+000  9.800000e+001  4.000000e+001
      vertex  6.508256e-001  9.800000e+001  3.135145e+001
      vertex  9.352347e-001  9.800000e+001  3.117275e+001
    endloop
  endfacet
  facet normal  0.000000e+000 -1.000000e+000  0.000000e+000
    outer loop
      vertex -5.000000e+000  9.800000e+001  4.000000e+001
      vertex  9.352347e-001  9.800000e+001  3.117275e+001
      vertex  1.172747e+000  9.800000e+001  3.093523e+001
    endloop
  endfacet
  facet normal  0.000000e+000 -1.000000e+000  0.000000e+000
    outer loop
      vertex  5.000000e+000  9.800000e+001  4.000000e+001
      vertex -5.000000e+000  9.800000e+001  4.000000e+001
      vertex  1.172747e+000  9.800000e+001  3.093523e+001
    endloop
  endfacet
  facet normal  0.000000e+000 -1.000000e+000  0.000000e+000
    outer loop
      vertex  5.000000e+000  9.800000e+001  4.000000e+001
      vertex  1.172747e+000  9.800000e+001  3.093523e+001
      vertex  1.351453e+000  9.800000e+001  3.065083e+001
    endloop
  endfacet
  facet normal  0.000000e+000 -1.000000e+000  0.000000e+000
    outer loop
      vertex  5.000000e+000  9.800000e+001  4.000000e+001
      vertex  1.351453e+000  9.800000e+001  3.065083e+001
      vertex  1.462392e+000  9.800000e+001  3.033378e+001
    endloop
  endfacet
  facet normal  0.000000e+000 -1.000000e+000  0.000000e+000
    outer loop
      vertex  5.000000e+000  9.800000e+001  4.000000e+001
      vertex  1.462392e+000  9.800000e+001  3.033378e+001
      vertex  1.500000e+000  9.800000e+001  3.000000e+001
    endloop
  endfacet
  facet normal -1.119617e-001  -0.000000e+000 -9.937125e-001
    outer loop
      vertex  0.000000e+000  9.800000e+001  3.150000e+001
      vertex  3.337814e-001  1.000000e+002  3.146239e+001
      vertex  3.337814e-001  9.800000e+001  3.146239e+001
    endloop
  endfacet
  facet normal -3.302803e-001  0.000000e+000 -9.438829e-001
    outer loop
      vertex  3.337814e-001  9.800000e+001  3.146239e+001
      vertex  3.337814e-001  1.000000e+002  3.146239e+001
      vertex  6.508256e-001  1.000000e+002  3.135145e+001
    endloop
  endfacet
  facet normal -3.302803e-001  -0.000000e+000 -9.438829e-001
    outer loop
      vertex  3.337814e-001  9.800000e+001  3.146239e+001
      vertex  6.508256e-001  1.000000e+002  3.135145e+001
      vertex  6.508256e-001  9.800000e+001  3.135145e+001
    endloop
  endfacet
  facet normal -5.320343e-001  0.000000e+000 -8.467228e-001
    outer loop
      vertex  6.508256e-001  9.800000e+001  3.135145e+001
      vertex  6.508256e-001  1.000000e+002  3.135145e+001
      vertex  9.352347e-001  1.000000e+002  3.117275e+001
    endloop
  endfacet
  facet normal -5.320343e-001  -0.000000e+000 -8.467228e-001
    outer loop
      vertex  6.508256e-001  9.800000e+001  3.135145e+001
      vertex  9.352347e-001  1.000000e+002  3.117275e+001
      vertex  9.352347e-001  9.800000e+001  3.117275e+001
    endloop
  endfacet
  facet normal -7.071068e-001  0.000000e+000 -7.071066e-001
    outer loop
      vertex  9.352347e-001  9.800000e+001  3.117275e+001
      vertex  9.352347e-001  1.000000e+002  3.117275e+001
      vertex  1.172747e+000  1.000000e+002  3.093523e+001
    endloop
  endfacet
  facet normal -7.071068e-001  -0.000000e+000 -7.071066e-001
    outer loop
      vertex  9.352347e-001  9.800000e+001  3.117275e+001
      vertex  1.172747e+000  1.000000e+002  3.093523e+001
      vertex  1.172747e+000  9.800000e+001  3.093523e+001
    endloop
  endfacet
  facet normal -8.467238e-001  0.000000e+000 -5.320327e-001
    outer loop
      vertex  1.172747e+000  9.800000e+001  3.093523e+001
      vertex  1.172747e+000  1.000000e+002  3.093523e+001
      vertex  1.351453e+000  1.000000e+002  3.065083e+001
    endloop
  endfacet
  facet normal -8.467238e-001  -0.000000e+000 -5.320327e-001
    outer loop
      vertex  1.172747e+000  9.800000e+001  3.093523e+001
      vertex  1.351453e+000  1.000000e+002  3.065083e+001
      vertex  1.351453e+000  9.800000e+001  3.065083e+001
    endloop
  endfacet
  facet normal -9.438831e-001  0.000000e+000 -3.302799e-001
    outer loop
      vertex  1.351453e+000  9.800000e+001  3.065083e+001
      vertex  1.351453e+000  1.000000e+002  3.065083e+001
      vertex  1.462392e+000  1.000000e+002  3.033378e+001
    endloop
  endfacet
  facet normal -9.438831e-001  -0.000000e+000 -3.302799e-001
    outer loop
      vertex  1.351453e+000  9.800000e+001  3.065083e+001
      vertex  1.462392e+000  1.000000e+002  3.033378e+001
      vertex  1.462392e+000  9.800000e+001  3.033378e+001
    endloop
  endfacet
  facet normal -9.937122e-001  0.000000e+000 -1.119643e-001
    outer loop
      vertex  1.462392e+000  9.800000e+001  3.033378e+001
      vertex  1.462392e+000  1.000000e+002  3.033378e+001
      vertex  1.500000e+000  1.000000e+002  3.000000e+001
    endloop
  endfacet
  facet normal -9.937122e-001  -0.000000e+000 -1.119643e-001
    outer loop
      vertex  1.462392e+000  9.800000e+001  3.033378e+001
      vertex  1.500000e+000  1.000000e+002  3.000000e+001
      vertex  1.500000e+000  9.800000e+001  3.000000e+001
    endloop
  endfacet
  facet normal -1.119617e-001  0.000000e+000 -9.937125e-001
    outer loop
      vertex  3.337814e-001  1.000000e+002  3.146239e+001
      vertex  0.000000e+000  9.800000e+001  3.150000e+001
      vertex  0.000000e+000  1.000000e+002  3.150000e+001
    endloop
  endfacet
  facet normal  1.119617e-001  0.000000e+000 -9.937125e-001
    outer loop
      vertex  0.000000e+000  1.000000e+002  3.150000e+001
      vertex  0.000000e+000  9.800000e+001  3.150000e+001
      vertex -3.337814e-001  9.800000e+001  3.146239e+001
    endloop
  endfacet
  facet normal  1.119617e-001  0.000000e+000 -9.937125e-001
    outer loop
      vertex  0.000000e+000  1.000000e+002  3.150000e+001
      vertex -3.337814e-001  9.800000e+001  3.146239e+001
      vertex -3.337814e-001  1.000000e+002  3.146239e+001
    endloop
  endfacet
  facet normal  3.302803e-001  0.000000e+000 -9.438829e-001
    outer loop
      vertex -3.337814e-001  1.000000e+002  3.146239e+001
      vertex -3.337814e-001  9.800000e+001  3.146239e+001
      vertex -6.508256e-001  9.800000e+001  3.135145e+001
    endloop
  endfacet
  facet normal  3.302803e-001  0.000000e+000 -9.438829e-001
    outer loop
      vertex -3.337814e-001  1.000000e+002  3.146239e+001
      vertex -6.508256e-001  9.800000e+001  3.135145e+001
      vertex -6.508256e-001  1.000000e+002  3.135145e+001
    endloop
  endfacet
  facet normal  5.320343e-001  0.000000e+000 -8.467228e-001
    outer loop
      vertex -6.508256e-001  1.000000e+002  3.135145e+001
      vertex -6.508256e-001  9.800000e+001  3.135145e+001
      vertex -9.352347e-001  9.800000e+001  3.117275e+001
    endloop
  endfacet
  facet normal  5.320343e-001  0.000000e+000 -8.467228e-001
    outer loop
      vertex -6.508256e-001  1.000000e+002  3.135145e+001
      vertex -9.352347e-001  9.800000e+001  3.117275e+001
      vertex -9.352347e-001  1.000000e+002  3.117275e+001
    endloop
  endfacet
  facet normal  7.071068e-001  0.000000e+000 -7.071066e-001
    outer loop
      vertex -9.352347e-001  1.000000e+002  3.117275e+001
      vertex -9.352347e-001  9.800000e+001  3.117275e+001
      vertex -1.172747e+000  9.800000e+001  3.093523e+001
    endloop
  endfacet
  facet normal  7.071068e-001  0.000000e+000 -7.071066e-001
    outer loop
      vertex -9.352347e-001  1.000000e+002  3.117275e+001
      vertex -1.172747e+000  9.800000e+001  3.093523e+001
      vertex -1.172747e+000  1.000000e+002  3.093523e+001
    endloop
  endfacet
  facet normal  8.467238e-001  0.000000e+000 -5.320327e-001
    outer loop
      vertex -1.172747e+000  1.000000e+002  3.093523e+001
      vertex -1.172747e+000  9.800000e+001  3.093523e+001
      vertex -1.351453e+000  9.800000e+001  3.065083e+001
    endloop
  endfacet
  facet normal  8.467238e-001  0.000000e+000 -5.320327e-001
    outer loop
      vertex -1.172747e+000  1.000000e+002  3.093523e+001
      vertex -1.351453e+000  9.800000e+001  3.065083e+001
      vertex -1.351453e+000  1.000000e+002  3.065083e+001
    endloop
  endfacet
  facet normal  9.438831e-001  0.000000e+000 -3.302799e-001
    outer loop
      vertex -1.351453e+000  1.000000e+002  3.065083e+001
      vertex -1.351453e+000  9.800000e+001  3.065083e+001
      vertex -1.462392e+000  9.800000e+001  3.033378e+001
    endloop
  endfacet
  facet normal  9.438831e-001  0.000000e+000 -3.302799e-001
    outer loop
      vertex -1.351453e+000  1.000000e+002  3.065083e+001
      vertex -1.462392e+000  9.800000e+001  3.033378e+001
      vertex -1.462392e+000  1.000000e+002  3.033378e+001
    endloop
  endfacet
  facet normal  9.937122e-001  0.000000e+000 -1.119643e-001
    outer loop
      vertex -1.462392e+000  1.000000e+002  3.033378e+001
      vertex -1.462392e+000  9.800000e+001  3.033378e+001
      vertex -1.500000e+000  9.800000e+001  3.000000e+001
    endloop
  endfacet
  facet normal  9.937122e-001  0.000000e+000 -1.119643e-001
    outer loop
      vertex -1.462392e+000  1.000000e+002  3.033378e+001
      vertex -1.500000e+000  9.800000e+001  3.000000e+001
      vertex -1.500000e+000  1.000000e+002  3.000000e+001
    endloop
  endfacet
  facet normal  1.119617e-001  0.000000e+000  9.937125e-001
    outer loop
      vertex  0.000000e+000  9.800000e+001  2.850000e+001
      vertex -3.337814e-001  1.000000e+002  2.853761e+001
      vertex -3.337814e-001  9.800000e+001  2.853761e+001
    endloop
  endfacet
  facet normal  3.302803e-001  -0.000000e+000  9.438829e-001
    outer loop
      vertex -3.337814e-001  9.800000e+001  2.853761e+001
      vertex -3.337814e-001  1.000000e+002  2.853761e+001
      vertex -6.508256e-001  1.000000e+002  2.864855e+001
    endloop
  endfacet
  facet normal  3.302803e-001  0.000000e+000  9.438829e-001
    outer loop
      vertex -3.337814e-001  9.800000e+001  2.853761e+001
      vertex -6.508256e-001  1.000000e+002  2.864855e+001
      vertex -6.508256e-001  9.800000e+001  2.864855e+001
    endloop
  endfacet
  facet normal  5.320343e-001  -0.000000e+000  8.467228e-001
    outer loop
      vertex -6.508256e-001  9.800000e+001  2.864855e+001
      vertex -6.508256e-001  1.000000e+002  2.864855e+001
      vertex -9.352347e-001  1.000000e+002  2.882725e+001
    endloop
  endfacet
  facet normal  5.320343e-001  0.000000e+000  8.467228e-001
    outer loop
      vertex -6.508256e-001  9.800000e+001  2.864855e+001
      vertex -9.352347e-001  1.000000e+002  2.882725e+001
      vertex -9.352347e-001  9.800000e+001  2.882725e+001
    endloop
  endfacet
  facet normal  7.071068e-001  -0.000000e+000  7.071066e-001
    outer loop
      vertex -9.352347e-001  9.800000e+001  2.882725e+001
      vertex -9.352347e-001  1.000000e+002  2.882725e+001
      vertex -1.172747e+000  1.000000e+002  2.906477e+001
    endloop
  endfacet
  facet normal  7.071068e-001  0.000000e+000  7.071066e-001
    outer loop
      vertex -9.352347e-001  9.800000e+001  2.882725e+001
      vertex -1.172747e+000  1.000000e+002  2.906477e+001
      vertex -1.172747e+000  9.800000e+001  2.906477e+001
    endloop
  endfacet
  facet normal  8.467238e-001  -0.000000e+000  5.320327e-001
    outer loop
      vertex -1.172747e+000  9.800000e+001  2.906477e+001
      vertex -1.172747e+000  1.000000e+002  2.906477e+001
      vertex -1.351453e+000  1.000000e+002  2.934917e+001
    endloop
  endfacet
  facet normal  8.467238e-001  0.000000e+000  5.320327e-001
    outer loop
      vertex -1.172747e+000  9.800000e+001  2.906477e+001
      vertex -1.351453e+000  1.000000e+002  2.934917e+001
      vertex -1.351453e+000  9.800000e+001  2.934917e+001
    endloop
  endfacet
  facet normal  9.438831e-001  -0.000000e+000  3.302799e-001
    outer loop
      vertex -1.351453e+000  9.800000e+001  2.934917e+001
      vertex -1.351453e+000  1.000000e+002  2.934917e+001
      vertex -1.462392e+000  1.000000e+002  2.966622e+001
    endloop
  endfacet
  facet normal  9.438831e-001  0.000000e+000  3.302799e-001
    outer loop
      vertex -1.351453e+000  9.800000e+001  2.934917e+001
      vertex -1.462392e+000  1.000000e+002  2.966622e+001
      vertex -1.462392e+000  9.800000e+001  2.966622e+001
    endloop
  endfacet
  facet normal  9.937122e-001  -0.000000e+000  1.119643e-001
    outer loop
      vertex -1.462392e+000  9.800000e+001  2.966622e+001
      vertex -1.462392e+000  1.000000e+002  2.966622e+001
      vertex -1.500000e+000  1.000000e+002  3.000000e+001
    endloop
  endfacet
  facet normal  9.937122e-001  0.000000e+000  1.119643e-001
    outer loop
      vertex -1.462392e+000  9.800000e+001  2.966622e+001
      vertex -1.500000e+000  1.000000e+002  3.000000e+001
      vertex -1.500000e+000  9.800000e+001  3.000000e+001
    endloop
  endfacet
  facet normal  1.119617e-001  -0.000000e+000  9.937125e-001
    outer loop
      vertex -3.337814e-001  1.000000e+002  2.853761e+001
      vertex  0.000000e+000  9.800000e+001  2.850000e+001
      vertex  0.000000e+000  1.000000e+002  2.850000e+001
    endloop
  endfacet
  facet normal -1.119617e-001  0.000000e+000  9.937125e-001
    outer loop
      vertex  0.000000e+000  1.000000e+002  2.850000e+001
      vertex  0.000000e+000  9.800000e+001  2.850000e+001
      vertex  3.337814e-001  9.800000e+001  2.853761e+001
    endloop
  endfacet
  facet normal -1.119617e-001  0.000000e+000  9.937125e-001
    outer loop
      vertex  0.000000e+000  1.000000e+002  2.850000e+001
      vertex  3.337814e-001  9.800000e+001  2.853761e+001
      vertex  3.337814e-001  1.000000e+002  2.853761e+001
    endloop
  endfacet
  facet normal -3.302803e-001  0.000000e+000  9.438829e-001
    outer loop
      vertex  3.337814e-001  1.000000e+002  2.853761e+001
      vertex  3.337814e-001  9.800000e+001  2.853761e+001
      vertex  6.508256e-001  9.800000e+001  2.864855e+001
    endloop
  endfacet
  facet normal -3.302803e-001  0.000000e+000  9.438829e-001
    outer loop
      vertex  3.337814e-001  1.000000e+002  2.853761e+001
      vertex  6.508256e-001  9.800000e+001  2.864855e+001
      vertex  6.508256e-001  1.000000e+002  2.864855e+001
    endloop
  endfacet
  facet normal -5.320343e-001  0.000000e+000  8.467228e-001
    outer loop
      vertex  6.508256e-001  1.000000e+002  2.864855e+001
      vertex  6.508256e-001  9.800000e+001  2.864855e+001
      vertex  9.352347e-001  9.800000e+001  2.882725e+001
    endloop
  endfacet
  facet normal -5.320343e-001  0.000000e+000  8.467228e-001
    outer loop
      vertex  6.508256e-001  1.000000e+002  2.864855e+001
      vertex  9.352347e-001  9.800000e+001  2.882725e+001
      vertex  9.352347e-001  1.000000e+002  2.882725e+001
    endloop
  endfacet
  facet normal -7.071068e-001  0.000000e+000  7.071066e-001
    outer loop
      vertex  9.352347e-001  1.000000e+002  2.882725e+001
      vertex  9.352347e-001  9.800000e+001  2.882725e+001
      vertex  1.172747e+000  9.800000e+001  2.906477e+001
    endloop
  endfacet
  facet normal -7.071068e-001  0.000000e+000  7.071066e-001
    outer loop
      vertex  9.352347e-001  1.000000e+002  2.882725e+001
      vertex  1.172747e+000  9.800000e+001  2.906477e+001
      vertex  1.172747e+000  1.000000e+002  2.906477e+001
    endloop
  endfacet
  facet normal -8.467238e-001  0.000000e+000  5.320327e-001
    outer loop
      vertex  1.172747e+000  1.000000e+002  2.906477e+001
      vertex  1.172747e+000  9.800000e+001  2.906477e+001
      vertex  1.351453e+000  9.800000e+001  2.934917e+001
    endloop
  endfacet
  facet normal -8.467238e-001  0.000000e+000  5.320327e-001
    outer loop
      vertex  1.172747e+000  1.000000e+002  2.906477e+001
      vertex  1.351453e+000  9.800000e+001  2.934917e+001
      vertex  1.351453e+000  1.000000e+002  2.934917e+001
    endloop
  endfacet
  facet normal -9.438831e-001  0.000000e+000  3.302799e-001
    outer loop
      vertex  1.351453e+000  1.000000e+002  2.934917e+001
      vertex  1.351453e+000  9.800000e+001  2.934917e+001
      vertex  1.462392e+000  9.800000e+001  2.966622e+001
    endloop
  endfacet
  facet normal -9.438831e-001  0.000000e+000  3.302799e-001
    outer loop
      vertex  1.351453e+000  1.000000e+002  2.934917e+001
      vertex  1.462392e+000  9.800000e+001  2.966622e+001
      vertex  1.462392e+000  1.000000e+002  2.966622e+001
    endloop
  endfacet
  facet normal -9.937122e-001  0.000000e+000  1.119643e-001
    outer loop
      vertex  1.462392e+000  1.000000e+002  2.966622e+001
      vertex  1.462392e+000  9.800000e+001  2.966622e+001
      vertex  1.500000e+000  9.800000e+001  3.000000e+001
    endloop
  endfacet
  facet normal -9.937122e-001  0.000000e+000  1.119643e-001
    outer loop
      vertex  1.462392e+000  1.000000e+002  2.966622e+001
      vertex  1.500000e+000  9.800000e+001  3.000000e+001
      vertex  1.500000e+000  1.000000e+002  3.000000e+001
    endloop
  endfacet
  facet normal  1.000000e+000  -0.000000e+000  0.000000e+000
    outer loop
      vertex -5.000000e+000 -9.300000e+001  4.000000e+001
      vertex -5.000000e+000 -9.800000e+001  4.000000e+001
      vertex -5.000000e+000 -9.800000e+001  3.500000e+001
    endloop
  endfacet
  facet normal  1.000000e+000  -0.000000e+000  0.000000e+000
    outer loop
      vertex -5.000000e+000 -9.300000e+001  4.000000e+001
      vertex -5.000000e+000 -9.800000e+001  3.500000e+001
      vertex -5.000000e+000 -9.800000e+001  3.200000e+001
    endloop
  endfacet
  facet normal  1.000000e+000  -0.000000e+000  0.000000e+000
    outer loop
      vertex -5.000000e+000 -9.300000e+001  4.000000e+001
      vertex -5.000000e+000 -9.800000e+001  3.200000e+001
      vertex -5.000000e+000 -9.800000e+001  2.000000e+000
    endloop
  endfacet
  facet normal  1.000000e+000  0.000000e+000  0.000000e+000
    outer loop
      vertex -5.000000e+000 -9.300000e+001  4.000000e+001
      vertex -5.000000e+000 -9.800000e+001  2.000000e+000
      vertex -5.000000e+000 -9.300000e+001  2.000000e+000
    endloop
  endfacet
  facet normal  1.000000e+000  -0.000000e+000  0.000000e+000
    outer loop
      vertex -5.000000e+000 -9.800000e+001  3.500000e+001
      vertex -5.000000e+000 -1.000000e+002  3.500000e+001
      vertex -5.000000e+000 -9.800000e+001  3.200000e+001
    endloop
  endfacet
  facet normal  1.000000e+000  0.000000e+000  0.000000e+000
    outer loop
      vertex -5.000000e+000 -9.800000e+001  3.200000e+001
      vertex -5.000000e+000 -1.000000e+002  3.500000e+001
      vertex -5.000000e+000 -1.000000e+002  3.200000e+001
    endloop
  endfacet
  facet normal -1.000000e+000  0.000000e+000  0.000000e+000
    outer loop
      vertex  5.000000e+000 -9.300000e+001  4.000000e+001
      vertex  5.000000e+000 -9.300000e+001  2.000000e+000
      vertex  5.000000e+000 -9.800000e+001  2.000000e+000
    endloop
  endfacet
  facet normal -1.000000e+000  0.000000e+000  0.000000e+000
    outer loop
      vertex  5.000000e+000 -9.300000e+001  4.000000e+001
      vertex  5.000000e+000 -9.800000e+001  2.000000e+000
      vertex  5.000000e+000 -9.800000e+001  3.200000e+001
    endloop
  endfacet
  facet normal -1.000000e+000  0.000000e+000  0.000000e+000
    outer loop
      vertex  5.000000e+000 -9.300000e+001  4.000000e+001
      vertex  5.000000e+000 -9.800000e+001  3.200000e+001
      vertex  5.000000e+000 -9.800000e+001  3.500000e+001
    endloop
  endfacet
  facet normal -1.000000e+000  0.000000e+000  0.000000e+000
    outer loop
      vertex  5.000000e+000 -9.300000e+001  4.000000e+001
      vertex  5.000000e+000 -9.800000e+001  3.500000e+001
      vertex  5.000000e+000 -9.800000e+001  4.000000e+001
    endloop
  endfacet
  facet normal -1.000000e+000  0.000000e+000  0.000000e+000
    outer loop
      vertex  5.000000e+000 -9.800000e+001  3.500000e+001
      vertex  5.000000e+000 -9.800000e+001  3.200000e+001
      vertex  5.000000e+000 -1.000000e+002  3.500000e+001
    endloop
  endfacet
  facet normal -1.000000e+000  0.000000e+000  0.000000e+000
    outer loop
      vertex  5.000000e+000 -1.000000e+002  3.500000e+001
      vertex  5.000000e+000 -9.800000e+001  3.200000e+001
      vertex  5.000000e+000 -1.000000e+002  3.200000e+001
    endloop
  endfacet
  facet normal  -0.000000e+000  0.000000e+000  1.000000e+000
    outer loop
      vertex  5.000000e+000 -9.800000e+001  3.200000e+001
      vertex -5.000000e+000 -9.800000e+001  3.200000e+001
      vertex  5.000000e+000 -1.000000e+002  3.200000e+001
    endloop
  endfacet
  facet normal  0.000000e+000  0.000000e+000  1.000000e+000
    outer loop
      vertex  5.000000e+000 -1.000000e+002  3.200000e+001
      vertex -5.000000e+000 -9.800000e+001  3.200000e+001
      vertex -5.000000e+000 -1.000000e+002  3.200000e+001
    endloop
  endfacet
  facet normal  -0.000000e+000  0.000000e+000 -1.000000e+000
    outer loop
      vertex -5.000000e+000 -9.800000e+001  3.500000e+001
      vertex  5.000000e+000 -9.800000e+001  3.500000e+001
      vertex -5.000000e+000 -1.000000e+002  3.500000e+001
    endloop
  endfacet
  facet normal  0.000000e+000  0.000000e+000 -1.000000e+000
    outer loop
      vertex -5.000000e+000 -1.000000e+002  3.500000e+001
      vertex  5.000000e+000 -9.800000e+001  3.500000e+001
      vertex  5.000000e+000 -1.000000e+002  3.500000e+001
    endloop
  endfacet
  facet normal  0.000000e+000 -1.000000e+000  -0.000000e+000
    outer loop
      vertex  5.000000e+001 -1.000000e+002  0.000000e+000
      vertex -5.000000e+000 -1.000000e+002  3.200000e+001
      vertex -5.000000e+001 -1.000000e+002  0.000000e+000
    endloop
  endfacet
  facet normal  0.000000e+000 -1.000000e+000  0.000000e+000
    outer loop
      vertex -5.000000e+001 -1.000000e+002  0.000000e+000
      vertex -5.000000e+000 -1.000000e+002  3.200000e+001
      vertex -5.000000e+000 -1.000000e+002  3.500000e+001
    endloop
  endfacet
  facet normal  -0.000000e+000 -1.000000e+000  0.000000e+000
    outer loop
      vertex -5.000000e+001 -1.000000e+002  0.000000e+000
      vertex -5.000000e+000 -1.000000e+002  3.500000e+001
      vertex -5.000000e+001 -1.000000e+002  4.000000e+001
    endloop
  endfacet
  facet normal  0.000000e+000 -1.000000e+000  0.000000e+000
    outer loop
      vertex -5.000000e+000 -1.000000e+002  3.200000e+001
      vertex  5.000000e+001 -1.000000e+002  0.000000e+000
      vertex  5.000000e+000 -1.000000e+002  3.200000e+001
    endloop
  endfacet
  facet normal  0.000000e+000 -1.000000e+000  0.000000e+000
    outer loop
      vertex  5.000000e+000 -1.000000e+002  3.200000e+001
      vertex  5.000000e+001 -1.000000e+002  0.000000e+000
      vertex  5.000000e+001 -1.000000e+002  4.000000e+001
    endloop
  endfacet
  facet normal  0.000000e+000 -1.000000e+000  0.000000e+000
    outer loop
      vertex  5.000000e+000 -1.000000e+002  3.200000e+001
      vertex  5.000000e+001 -1.000000e+002  4.000000e+001
      vertex  5.000000e+000 -1.000000e+002  3.500000e+001
    endloop
  endfacet
  facet normal  0.000000e+000 -1.000000e+000  0.000000e+000
    outer loop
      vertex  5.000000e+000 -1.000000e+002  3.500000e+001
      vertex  5.000000e+001 -1.000000e+002  4.000000e+001
      vertex -5.000000e+001 -1.000000e+002  4.000000e+001
    endloop
  endfacet
  facet normal  0.000000e+000 -1.000000e+000  0.000000e+000
    outer loop
      vertex  5.000000e+000 -1.000000e+002  3.500000e+001
      vertex -5.000000e+001 -1.000000e+002  4.000000e+001
      vertex -5.000000e+000 -1.000000e+002  3.500000e+001
    endloop
  endfacet
  facet normal  0.000000e+000  1.000000e+000  -0.000000e+000
    outer loop
      vertex  5.000000e+000 -9.800000e+001  4.000000e+001
      vertex  5.000000e+000 -9.800000e+001  3.500000e+001
      vertex -5.000000e+000 -9.800000e+001  4.000000e+001
    endloop
  endfacet
  facet normal  0.000000e+000  1.000000e+000  0.000000e+000
    outer loop
      vertex -5.000000e+000 -9.800000e+001  4.000000e+001
      vertex  5.000000e+000 -9.800000e+001  3.500000e+001
      vertex -5.000000e+000 -9.800000e+001  3.500000e+001
    endloop
  endfacet
  facet normal  0.000000e+000  1.000000e+000  -0.000000e+000
    outer loop
      vertex  5.000000e+000 -9.800000e+001  3.200000e+001
      vertex  5.000000e+000 -9.800000e+001  2.000000e+000
      vertex -5.000000e+000 -9.800000e+001  3.200000e+001
    endloop
  endfacet
  facet normal  0.000000e+000  1.000000e+000  0.000000e+000
    outer loop
      vertex -5.000000e+000 -9.800000e+001  3.200000e+001
      vertex  5.000000e+000 -9.800000e+001  2.000000e+000
      vertex -5.000000e+000 -9.800000e+001  2.000000e+000
    endloop
  endfacet
  facet normal  0.000000e+000  0.000000e+000 -1.000000e+000
    outer loop
      vertex -5.000000e+001 -1.000000e+002  0.000000e+000
      vertex -5.000000e+001  1.000000e+002  0.000000e+000
      vertex  5.000000e+001 -1.000000e+002  0.000000e+000
    endloop
  endfacet
  facet normal  0.000000e+000  0.000000e+000 -1.000000e+000
    outer loop
      vertex  5.000000e+001 -1.000000e+002  0.000000e+000
      vertex -5.000000e+001  1.000000e+002  0.000000e+000
      vertex  5.000000e+001  1.000000e+002  0.000000e+000
    endloop
  endfacet
  facet normal  0.000000e+000  0.000000e+000  1.000000e+000
    outer loop
      vertex -5.000000e+001 -1.000000e+002  4.000000e+001
      vertex  5.000000e+001 -1.000000e+002  4.000000e+001
      vertex  4.800000e+001 -9.800000e+001  4.000000e+001
    endloop
  endfacet
  facet normal  0.000000e+000  0.000000e+000  1.000000e+000
    outer loop
      vertex -5.000000e+001 -1.000000e+002  4.000000e+001
      vertex  4.800000e+001 -9.800000e+001  4.000000e+001
      vertex  8.000000e+000 -9.800000e+001  4.000000e+001
    endloop
  endfacet
  facet normal  0.000000e+000  0.000000e+000  1.000000e+000
    outer loop
      vertex -5.000000e+001 -1.000000e+002  4.000000e+001
      vertex  8.000000e+000 -9.800000e+001  4.000000e+001
      vertex  5.000000e+000 -9.800000e+001  4.000000e+001
    endloop
  endfacet
  facet normal  0.000000e+000  0.000000e+000  1.000000e+000
    outer loop
      vertex -5.000000e+001 -1.000000e+002  4.000000e+001
      vertex  5.000000e+000 -9.800000e+001  4.000000e+001
      vertex -5.000000e+000 -9.800000e+001  4.000000e+001
    endloop
  endfacet
  facet normal  0.000000e+000  0.000000e+000  1.000000e+000
    outer loop
      vertex -5.000000e+001 -1.000000e+002  4.000000e+001
      vertex -5.000000e+000 -9.800000e+001  4.000000e+001
      vertex -8.000000e+000 -9.800000e+001  4.000000e+001
    endloop
  endfacet
  facet normal  0.000000e+000  0.000000e+000  1.000000e+000
    outer loop
      vertex -5.000000e+001 -1.000000e+002  4.000000e+001
      vertex -8.000000e+000 -9.800000e+001  4.000000e+001
      vertex -4.800000e+001 -9.800000e+001  4.000000e+001
    endloop
  endfacet
  facet normal  0.000000e+000  -0.000000e+000  1.000000e+000
    outer loop
      vertex -5.000000e+001 -1.000000e+002  4.000000e+001
      vertex -4.800000e+001 -9.800000e+001  4.000000e+001
      vertex -4.800000e+001  9.800000e+001  4.000000e+001
    endloop
  endfacet
  facet normal  0.000000e+000  0.000000e+000  1.000000e+000
    outer loop
      vertex -5.000000e+001 -1.000000e+002  4.000000e+001
      vertex -4.800000e+001  9.800000e+001  4.000000e+001
      vertex -5.000000e+001  1.000000e+002  4.000000e+001
    endloop
  endfacet
  facet normal  0.000000e+000  -0.000000e+000  1.000000e+000
    outer loop
      vertex -5.000000e+001  1.000000e+002  4.000000e+001
      vertex -4.800000e+001  9.800000e+001  4.000000e+001
      vertex -8.000000e+000  9.800000e+001  4.000000e+001
    endloop
  endfacet
  facet normal  0.000000e+000  -0.000000e+000  1.000000e+000
    outer loop
      vertex -5.000000e+001  1.000000e+002  4.000000e+001
      vertex -8.000000e+000  9.800000e+001  4.000000e+001
      vertex -5.000000e+000  9.800000e+001  4.000000e+001
    endloop
  endfacet
  facet normal  0.000000e+000  -0.000000e+000  1.000000e+000
    outer loop
      vertex -5.000000e+001  1.000000e+002  4.000000e+001
      vertex -5.000000e+000  9.800000e+001  4.000000e+001
      vertex  5.000000e+000  9.800000e+001  4.000000e+001
    endloop
  endfacet
  facet normal  0.000000e+000  -0.000000e+000  1.000000e+000
    outer loop
      vertex -5.000000e+001  1.000000e+002  4.000000e+001
      vertex  5.000000e+000  9.800000e+001  4.000000e+001
      vertex  5.000000e+001  1.000000e+002  4.000000e+001
    endloop
  endfacet
  facet normal  0.000000e+000  0.000000e+000  1.000000e+000
    outer loop
      vertex  5.000000e+001  1.000000e+002  4.000000e+001
      vertex  5.000000e+000  9.800000e+001  4.000000e+001
      vertex  8.000000e+000  9.800000e+001  4.000000e+001
    endloop
  endfacet
  facet normal  0.000000e+000  0.000000e+000  1.000000e+000
    outer loop
      vertex  5.000000e+001  1.000000e+002  4.000000e+001
      vertex  8.000000e+000  9.800000e+001  4.000000e+001
      vertex  4.800000e+001  9.800000e+001  4.000000e+001
    endloop
  endfacet
  facet normal  -0.000000e+000  0.000000e+000  1.000000e+000
    outer loop
      vertex  5.000000e+001  1.000000e+002  4.000000e+001
      vertex  4.800000e+001  9.800000e+001  4.000000e+001
      vertex  4.800000e+001 -9.800000e+001  4.000000e+001
    endloop
  endfacet
  facet normal  -0.000000e+000  0.000000e+000  1.000000e+000
    outer loop
      vertex  5.000000e+001  1.000000e+002  4.000000e+001
      vertex  4.800000e+001 -9.800000e+001  4.000000e+001
      vertex  5.000000e+001 -1.000000e+002  4.000000e+001
    endloop
  endfacet
  facet normal  0.000000e+000  0.000000e+000  1.000000e+000
    outer loop
      vertex -8.000000e+000 -9.800000e+001  4.000000e+001
      vertex -5.000000e+000 -9.800000e+001  4.000000e+001
      vertex -8.000000e+000 -9.300000e+001  4.000000e+001
    endloop
  endfacet
  facet normal  -0.000000e+000  0.000000e+000  1.000000e+000
    outer loop
      vertex -8.000000e+000 -9.300000e+001  4.000000e+001
      vertex -5.000000e+000 -9.800000e+001  4.000000e+001
      vertex -5.000000e+000 -9.300000e+001  4.000000e+001
    endloop
  endfacet
  facet normal  0.000000e+000  0.000000e+000  1.000000e+000
    outer loop
      vertex -8.000000e+000  9.300000e+001  4.000000e+001
      vertex -5.000000e+000  9.300000e+001  4.000000e+001
      vertex -8.000000e+000  9.800000e+001  4.000000e+001
    endloop
  endfacet
  facet normal  -0.000000e+000  0.000000e+000  1.000000e+000
    outer loop
      vertex -8.000000e+000  9.800000e+001  4.000000e+001
      vertex -5.000000e+000  9.300000e+001  4.000000e+001
      vertex -5.000000e+000  9.800000e+001  4.000000e+001
    endloop
  endfacet
  facet normal  0.000000e+000  0.000000e+000  1.000000e+000
    outer loop
      vertex  5.000000e+000  9.300000e+001  4.000000e+001
      vertex  8.000000e+000  9.300000e+001  4.000000e+001
      vertex  5.000000e+000  9.800000e+001  4.000000e+001
    endloop
  endfacet
  facet normal  -0.000000e+000  0.000000e+000  1.000000e+000
    outer loop
      vertex  5.000000e+000  9.800000e+001  4.000000e+001
      vertex  8.000000e+000  9.300000e+001  4.000000e+001
      vertex  8.000000e+000  9.800000e+001  4.000000e+001
    endloop
  endfacet
  facet normal  0.000000e+000  0.000000e+000  1.000000e+000
    outer loop
      vertex  5.000000e+000 -9.800000e+001  4.000000e+001
      vertex  8.000000e+000 -9.800000e+001  4.000000e+001
      vertex  5.000000e+000 -9.300000e+001  4.000000e+001
    endloop
  endfacet
  facet normal  -0.000000e+000  0.000000e+000  1.000000e+000
    outer loop
      vertex  5.000000e+000 -9.300000e+001  4.000000e+001
      vertex  8.000000e+000 -9.800000e+001  4.000000e+001
      vertex  8.000000e+000 -9.300000e+001  4.000000e+001
    endloop
  endfacet
  facet normal -1.000000e+000  -0.000000e+000  0.000000e+000
    outer loop
      vertex -8.000000e+000 -9.800000e+001  4.000000e+001
      vertex -8.000000e+000 -9.300000e+001  4.000000e+001
      vertex -8.000000e+000 -9.800000e+001  2.000000e+000
    endloop
  endfacet
  facet normal -1.000000e+000  0.000000e+000  0.000000e+000
    outer loop
      vertex -8.000000e+000 -9.800000e+001  2.000000e+000
      vertex -8.000000e+000 -9.300000e+001  4.000000e+001
      vertex -8.000000e+000 -9.300000e+001  2.000000e+000
    endloop
  endfacet
  facet normal  1.000000e+000  0.000000e+000  0.000000e+000
    outer loop
      vertex  8.000000e+000 -9.800000e+001  4.000000e+001
      vertex  8.000000e+000 -9.800000e+001  2.000000e+000
      vertex  8.000000e+000 -9.300000e+001  4.000000e+001
    endloop
  endfacet
  facet normal  1.000000e+000  0.000000e+000  0.000000e+000
    outer loop
      vertex  8.000000e+000 -9.300000e+001  4.000000e+001
      vertex  8.000000e+000 -9.800000e+001  2.000000e+000
      vertex  8.000000e+000 -9.300000e+001  2.000000e+000
    endloop
  endfacet
  facet normal  1.000000e+000  -0.000000e+000  0.000000e+000
    outer loop
      vertex -5.000000e+000  9.800000e+001  4.000000e+001
      vertex -5.000000e+000  9.300000e+001  4.000000e+001
      vertex -5.000000e+000  9.800000e+001  2.000000e+000
    endloop
  endfacet
  facet normal  1.000000e+000  0.000000e+000  0.000000e+000
    outer loop
      vertex -5.000000e+000  9.800000e+001  2.000000e+000
      vertex -5.000000e+000  9.300000e+001  4.000000e+001
      vertex -5.000000e+000  9.300000e+001  2.000000e+000
    endloop
  endfacet
  facet normal -1.000000e+000  -0.000000e+000  0.000000e+000
    outer loop
      vertex -8.000000e+000  9.300000e+001  4.000000e+001
      vertex -8.000000e+000  9.800000e+001  4.000000e+001
      vertex -8.000000e+000  9.300000e+001  2.000000e+000
    endloop
  endfacet
  facet normal -1.000000e+000  0.000000e+000  0.000000e+000
    outer loop
      vertex -8.000000e+000  9.300000e+001  2.000000e+000
      vertex -8.000000e+000  9.800000e+001  4.000000e+001
      vertex -8.000000e+000  9.800000e+001  2.000000e+000
    endloop
  endfacet
  facet normal  1.000000e+000  0.000000e+000  0.000000e+000
    outer loop
      vertex  8.000000e+000  9.300000e+001  4.000000e+001
      vertex  8.000000e+000  9.300000e+001  2.000000e+000
      vertex  8.000000e+000  9.800000e+001  4.000000e+001
    endloop
  endfacet
  facet normal  1.000000e+000  0.000000e+000  0.000000e+000
    outer loop
      vertex  8.000000e+000  9.800000e+001  4.000000e+001
      vertex  8.000000e+000  9.300000e+001  2.000000e+000
      vertex  8.000000e+000  9.800000e+001  2.000000e+000
    endloop
  endfacet
  facet normal -1.000000e+000  0.000000e+000  0.000000e+000
    outer loop
      vertex  5.000000e+000  9.800000e+001  4.000000e+001
      vertex  5.000000e+000  9.800000e+001  2.000000e+000
      vertex  5.000000e+000  9.300000e+001  4.000000e+001
    endloop
  endfacet
  facet normal -1.000000e+000  0.000000e+000  0.000000e+000
    outer loop
      vertex  5.000000e+000  9.300000e+001  4.000000e+001
      vertex  5.000000e+000  9.800000e+001  2.000000e+000
      vertex  5.000000e+000  9.300000e+001  2.000000e+000
    endloop
  endfacet
  facet normal  0.000000e+000  0.000000e+000  1.000000e+000
    outer loop
      vertex -8.000000e+000  9.300000e+001  2.000000e+000
      vertex -8.000000e+000  9.800000e+001  2.000000e+000
      vertex -4.800000e+001  9.800000e+001  2.000000e+000
    endloop
  endfacet
  facet normal  0.000000e+000  0.000000e+000  1.000000e+000
    outer loop
      vertex  8.000000e+000  9.300000e+001  2.000000e+000
      vertex  4.800000e+001  9.800000e+001  2.000000e+000
      vertex  8.000000e+000  9.800000e+001  2.000000e+000
    endloop
  endfacet
  facet normal  0.000000e+000  0.000000e+000  1.000000e+000
    outer loop
      vertex -5.000000e+000 -9.300000e+001  2.000000e+000
      vertex -5.000000e+000 -9.800000e+001  2.000000e+000
      vertex  5.000000e+000 -9.800000e+001  2.000000e+000
    endloop
  endfacet
  facet normal  0.000000e+000  -0.000000e+000  1.000000e+000
    outer loop
      vertex -5.000000e+000 -9.300000e+001  2.000000e+000
      vertex  5.000000e+000 -9.800000e+001  2.000000e+000
      vertex  5.000000e+000 -9.300000e+001  2.000000e+000
    endloop
  endfacet
  facet normal  0.000000e+000  -0.000000e+000  1.000000e+000
    outer loop
      vertex -5.000000e+000 -9.300000e+001  2.000000e+000
      vertex  5.000000e+000 -9.300000e+001  2.000000e+000
      vertex  8.000000e+000  9.300000e+001  2.000000e+000
    endloop
  endfacet
  facet normal  0.000000e+000  0.000000e+000  1.000000e+000
    outer loop
      vertex -5.000000e+000 -9.300000e+001  2.000000e+000
      vertex  8.000000e+000  9.300000e+001  2.000000e+000
      vertex -8.000000e+000 -9.300000e+001  2.000000e+000
    endloop
  endfacet
  facet normal  0.000000e+000  0.000000e+000  1.000000e+000
    outer loop
      vertex -8.000000e+000 -9.300000e+001  2.000000e+000
      vertex  8.000000e+000  9.300000e+001  2.000000e+000
      vertex  5.000000e+000  9.300000e+001  2.000000e+000
    endloop
  endfacet
  facet normal  0.000000e+000  0.000000e+000  1.000000e+000
    outer loop
      vertex -8.000000e+000 -9.300000e+001  2.000000e+000
      vertex  5.000000e+000  9.300000e+001  2.000000e+000
      vertex -5.000000e+000  9.300000e+001  2.000000e+000
    endloop
  endfacet
  facet normal  0.000000e+000  0.000000e+000  1.000000e+000
    outer loop
      vertex -8.000000e+000 -9.300000e+001  2.000000e+000
      vertex -5.000000e+000  9.300000e+001  2.000000e+000
      vertex -8.000000e+000  9.300000e+001  2.000000e+000
    endloop
  endfacet
  facet normal  0.000000e+000  0.000000e+000  1.000000e+000
    outer loop
      vertex -8.000000e+000 -9.300000e+001  2.000000e+000
      vertex -8.000000e+000  9.300000e+001  2.000000e+000
      vertex -4.800000e+001  9.800000e+001  2.000000e+000
    endloop
  endfacet
  facet normal  0.000000e+000  0.000000e+000  9.999999e-001
    outer loop
      vertex -8.000000e+000 -9.300000e+001  2.000000e+000
      vertex -4.800000e+001  9.800000e+001  2.000000e+000
      vertex -4.800000e+001 -9.800000e+001  2.000000e+000
    endloop
  endfacet
  facet normal  0.000000e+000  0.000000e+000  1.000000e+000
    outer loop
      vertex -8.000000e+000 -9.300000e+001  2.000000e+000
      vertex -4.800000e+001 -9.800000e+001  2.000000e+000
      vertex -8.000000e+000 -9.800000e+001  2.000000e+000
    endloop
  endfacet
  facet normal  0.000000e+000  0.000000e+000  1.000000e+000
    outer loop
      vertex -5.000000e+000  9.300000e+001  2.000000e+000
      vertex  5.000000e+000  9.300000e+001  2.000000e+000
      vertex -5.000000e+000  9.800000e+001  2.000000e+000
    endloop
  endfacet
  facet normal  -0.000000e+000  0.000000e+000  1.000000e+000
    outer loop
      vertex -5.000000e+000  9.800000e+001  2.000000e+000
      vertex  5.000000e+000  9.300000e+001  2.000000e+000
      vertex  5.000000e+000  9.800000e+001  2.000000e+000
    endloop
  endfacet
  facet normal  0.000000e+000  0.000000e+000  9.999999e-001
    outer loop
      vertex  8.000000e+000  9.300000e+001  2.000000e+000
      vertex  5.000000e+000 -9.300000e+001  2.000000e+000
      vertex  4.800000e+001  9.800000e+001  2.000000e+000
    endloop
  endfacet
  facet normal  0.000000e+000  0.000000e+000  1.000000e+000
    outer loop
      vertex  4.800000e+001  9.800000e+001  2.000000e+000
      vertex  5.000000e+000 -9.300000e+001  2.000000e+000
      vertex  8.000000e+000 -9.300000e+001  2.000000e+000
    endloop
  endfacet
  facet normal  -0.000000e+000  0.000000e+000  9.999999e-001
    outer loop
      vertex  4.800000e+001  9.800000e+001  2.000000e+000
      vertex  8.000000e+000 -9.300000e+001  2.000000e+000
      vertex  4.800000e+001 -9.800000e+001  2.000000e+000
    endloop
  endfacet
  facet normal  0.000000e+000  0.000000e+000  1.000000e+000
    outer loop
      vertex  4.800000e+001 -9.800000e+001  2.000000e+000
      vertex  8.000000e+000 -9.300000e+001  2.000000e+000
      vertex  8.000000e+000 -9.800000e+001  2.000000e+000
    endloop
  endfacet
  facet normal  0.000000e+000 -1.000000e+000  0.000000e+000
    outer loop
      vertex -4.800000e+001  9.800000e+001  4.000000e+001
      vertex -4.800000e+001  9.800000e+001  2.000000e+000
      vertex -8.000000e+000  9.800000e+001  4.000000e+001
    endloop
  endfacet
  facet normal  0.000000e+000 -1.000000e+000  -0.000000e+000
    outer loop
      vertex -8.000000e+000  9.800000e+001  4.000000e+001
      vertex -4.800000e+001  9.800000e+001  2.000000e+000
      vertex -8.000000e+000  9.800000e+001  2.000000e+000
    endloop
  endfacet
  facet normal  0.000000e+000 -1.000000e+000  0.000000e+000
    outer loop
      vertex  8.000000e+000  9.800000e+001  4.000000e+001
      vertex  8.000000e+000  9.800000e+001  2.000000e+000
      vertex  4.800000e+001  9.800000e+001  4.000000e+001
    endloop
  endfacet
  facet normal  0.000000e+000 -1.000000e+000  -0.000000e+000
    outer loop
      vertex  4.800000e+001  9.800000e+001  4.000000e+001
      vertex  8.000000e+000  9.800000e+001  2.000000e+000
      vertex  4.800000e+001  9.800000e+001  2.000000e+000
    endloop
  endfacet
  facet normal  0.000000e+000  1.000000e+000  -0.000000e+000
    outer loop
      vertex  4.800000e+001 -9.800000e+001  4.000000e+001
      vertex  4.800000e+001 -9.800000e+001  2.000000e+000
      vertex  8.000000e+000 -9.800000e+001  4.000000e+001
    endloop
  endfacet
  facet normal  0.000000e+000  1.000000e+000  0.000000e+000
    outer loop
      vertex  8.000000e+000 -9.800000e+001  4.000000e+001
      vertex  4.800000e+001 -9.800000e+001  2.000000e+000
      vertex  8.000000e+000 -9.800000e+001  2.000000e+000
    endloop
  endfacet
  facet normal  0.000000e+000  1.000000e+000  -0.000000e+000
    outer loop
      vertex -8.000000e+000 -9.800000e+001  4.000000e+001
      vertex -8.000000e+000 -9.800000e+001  2.000000e+000
      vertex -4.800000e+001 -9.800000e+001  4.000000e+001
    endloop
  endfacet
  facet normal  0.000000e+000  1.000000e+000  0.000000e+000
    outer loop
      vertex -4.800000e+001 -9.800000e+001  4.000000e+001
      vertex -8.000000e+000 -9.800000e+001  2.000000e+000
      vertex -4.800000e+001 -9.800000e+001  2.000000e+000
    endloop
  endfacet
  facet normal  0.000000e+000  1.000000e+000  0.000000e+000
    outer loop
      vertex -5.000000e+000 -9.300000e+001  2.000000e+000
      vertex -8.000000e+000 -9.300000e+001  2.000000e+000
      vertex -5.000000e+000 -9.300000e+001  4.000000e+001
    endloop
  endfacet
  facet normal  0.000000e+000  1.000000e+000  0.000000e+000
    outer loop
      vertex -5.000000e+000 -9.300000e+001  4.000000e+001
      vertex -8.000000e+000 -9.300000e+001  2.000000e+000
      vertex -8.000000e+000 -9.300000e+001  4.000000e+001
    endloop
  endfacet
  facet normal  0.000000e+000  1.000000e+000  0.000000e+000
    outer loop
      vertex  8.000000e+000 -9.300000e+001  2.000000e+000
      vertex  5.000000e+000 -9.300000e+001  2.000000e+000
      vertex  8.000000e+000 -9.300000e+001  4.000000e+001
    endloop
  endfacet
  facet normal  0.000000e+000  1.000000e+000  0.000000e+000
    outer loop
      vertex  8.000000e+000 -9.300000e+001  4.000000e+001
      vertex  5.000000e+000 -9.300000e+001  2.000000e+000
      vertex  5.000000e+000 -9.300000e+001  4.000000e+001
    endloop
  endfacet
  facet normal  0.000000e+000 -1.000000e+000  -0.000000e+000
    outer loop
      vertex -5.000000e+000  9.300000e+001  2.000000e+000
      vertex -5.000000e+000  9.300000e+001  4.000000e+001
      vertex -8.000000e+000  9.300000e+001  2.000000e+000
    endloop
  endfacet
  facet normal  0.000000e+000 -1.000000e+000  0.000000e+000
    outer loop
      vertex -8.000000e+000  9.300000e+001  2.000000e+000
      vertex -5.000000e+000  9.300000e+001  4.000000e+001
      vertex -8.000000e+000  9.300000e+001  4.000000e+001
    endloop
  endfacet
  facet normal  0.000000e+000 -1.000000e+000  -0.000000e+000
    outer loop
      vertex  8.000000e+000  9.300000e+001  2.000000e+000
      vertex  8.000000e+000  9.300000e+001  4.000000e+001
      vertex  5.000000e+000  9.300000e+001  2.000000e+000
    endloop
  endfacet
  facet normal  0.000000e+000 -1.000000e+000  0.000000e+000
    outer loop
      vertex  5.000000e+000  9.300000e+001  2.000000e+000
      vertex  8.000000e+000  9.300000e+001  4.000000e+001
      vertex  5.000000e+000  9.300000e+001  4.000000e+001
    endloop
  endfacet
  facet normal -1.000000e+000  0.000000e+000  0.000000e+000
    outer loop
      vertex -5.000000e+001  1.000000e+002  4.000000e+001
      vertex -5.000000e+001  1.000000e+002  0.000000e+000
      vertex -5.000000e+001 -1.000000e+002  4.000000e+001
    endloop
  endfacet
  facet normal -1.000000e+000  0.000000e+000  0.000000e+000
    outer loop
      vertex -5.000000e+001 -1.000000e+002  4.000000e+001
      vertex -5.000000e+001  1.000000e+002  0.000000e+000
      vertex -5.000000e+001 -1.000000e+002  0.000000e+000
    endloop
  endfacet
  facet normal  1.000000e+000  0.000000e+000  0.000000e+000
    outer loop
      vertex  5.000000e+001 -1.000000e+002  4.000000e+001
      vertex  5.000000e+001 -1.000000e+002  0.000000e+000
      vertex  5.000000e+001  1.000000e+002  4.000000e+001
    endloop
  endfacet
  facet normal  1.000000e+000  0.000000e+000  0.000000e+000
    outer loop
      vertex  5.000000e+001  1.000000e+002  4.000000e+001
      vertex  5.000000e+001 -1.000000e+002  0.000000e+000
      vertex  5.000000e+001  1.000000e+002  0.000000e+000
    endloop
  endfacet
  facet normal  1.000000e+000  0.000000e+000  0.000000e+000
    outer loop
      vertex -4.800000e+001 -9.800000e+001  4.000000e+001
      vertex -4.800000e+001 -9.800000e+001  2.000000e+000
      vertex -4.800000e+001  9.800000e+001  4.000000e+001
    endloop
  endfacet
  facet normal  1.000000e+000  0.000000e+000  0.000000e+000
    outer loop
      vertex -4.800000e+001  9.800000e+001  4.000000e+001
      vertex -4.800000e+001 -9.800000e+001  2.000000e+000
      vertex -4.800000e+001  9.800000e+001  2.000000e+000
    endloop
  endfacet
  facet normal -1.000000e+000  0.000000e+000  0.000000e+000
    outer loop
      vertex  4.800000e+001  9.800000e+001  4.000000e+001
      vertex  4.800000e+001  9.800000e+001  2.000000e+000
      vertex  4.800000e+001 -9.800000e+001  4.000000e+001
    endloop
  endfacet
  facet normal -1.000000e+000  0.000000e+000  0.000000e+000
    outer loop
      vertex  4.800000e+001 -9.800000e+001  4.000000e+001
      vertex  4.800000e+001  9.800000e+001  2.000000e+000
      vertex  4.800000e+001 -9.800000e+001  2.000000e+000
    endloop
  endfacet
endsolid CATIA STL
