solid CATIA STL
  facet normal  0.000000e+000  0.000000e+000  1.000000e+000
    outer loop
      vertex -1.000000e+002  9.769963e-015  1.000000e+001
      vertex -1.000000e+002 -5.000000e+000  1.000000e+001
      vertex  0.000000e+000  0.000000e+000  1.000000e+001
    endloop
  endfacet
  facet normal  0.000000e+000  0.000000e+000  1.000000e+000
    outer loop
      vertex  0.000000e+000  0.000000e+000  1.000000e+001
      vertex -1.000000e+002 -5.000000e+000  1.000000e+001
      vertex -3.000000e+001 -5.000000e+000  1.000000e+001
    endloop
  endfacet
  facet normal  -0.000000e+000  0.000000e+000  1.000000e+000
    outer loop
      vertex  0.000000e+000  0.000000e+000  1.000000e+001
      vertex -3.000000e+001 -5.000000e+000  1.000000e+001
      vertex -5.000000e+000 -3.000000e+001  1.000000e+001
    endloop
  endfacet
  facet normal  0.000000e+000  0.000000e+000  1.000000e+000
    outer loop
      vertex -5.000000e+000 -3.000000e+001  1.000000e+001
      vertex -5.000000e+000 -1.000000e+002  1.000000e+001
      vertex  0.000000e+000  0.000000e+000  1.000000e+001
    endloop
  endfacet
  facet normal  0.000000e+000  0.000000e+000  1.000000e+000
    outer loop
      vertex  0.000000e+000  0.000000e+000  1.000000e+001
      vertex -5.000000e+000 -1.000000e+002  1.000000e+001
      vertex -2.042810e-014 -1.000000e+002  1.000000e+001
    endloop
  endfacet
  facet normal  0.000000e+000  0.000000e+000 -1.000000e+000
    outer loop
      vertex -5.000000e+000 -3.000000e+001  0.000000e+000
      vertex -3.000000e+001 -5.000000e+000  0.000000e+000
      vertex  0.000000e+000  0.000000e+000  0.000000e+000
    endloop
  endfacet
  facet normal  0.000000e+000  0.000000e+000 -1.000000e+000
    outer loop
      vertex  0.000000e+000  0.000000e+000  0.000000e+000
      vertex -3.000000e+001 -5.000000e+000  0.000000e+000
      vertex -1.000000e+002 -5.000000e+000  0.000000e+000
    endloop
  endfacet
  facet normal  0.000000e+000  0.000000e+000 -1.000000e+000
    outer loop
      vertex  0.000000e+000  0.000000e+000  0.000000e+000
      vertex -1.000000e+002 -5.000000e+000  0.000000e+000
      vertex -1.000000e+002  9.769963e-015  0.000000e+000
    endloop
  endfacet
  facet normal  0.000000e+000  0.000000e+000 -1.000000e+000
    outer loop
      vertex -5.000000e+000 -3.000000e+001  0.000000e+000
      vertex  0.000000e+000  0.000000e+000  0.000000e+000
      vertex -5.000000e+000 -1.000000e+002  0.000000e+000
    endloop
  endfacet
  facet normal  0.000000e+000  0.000000e+000 -1.000000e+000
    outer loop
      vertex -5.000000e+000 -1.000000e+002  0.000000e+000
      vertex  0.000000e+000  0.000000e+000  0.000000e+000
      vertex -2.042810e-014 -1.000000e+002  0.000000e+000
    endloop
  endfacet
  facet normal  9.769963e-017  1.000000e+000  0.000000e+000
    outer loop
      vertex -1.000000e+002  9.769963e-015  1.000000e+001
      vertex  0.000000e+000  0.000000e+000  1.000000e+001
      vertex -1.000000e+002  9.769963e-015  0.000000e+000
    endloop
  endfacet
  facet normal  9.769963e-017  1.000000e+000  0.000000e+000
    outer loop
      vertex -1.000000e+002  9.769963e-015  0.000000e+000
      vertex  0.000000e+000  0.000000e+000  1.000000e+001
      vertex  0.000000e+000  0.000000e+000  0.000000e+000
    endloop
  endfacet
  facet normal  1.000000e+000 -2.042810e-016  0.000000e+000
    outer loop
      vertex -2.042810e-014 -1.000000e+002  1.000000e+001
      vertex -2.042810e-014 -1.000000e+002  0.000000e+000
      vertex  0.000000e+000  0.000000e+000  1.000000e+001
    endloop
  endfacet
  facet normal  1.000000e+000 -2.042810e-016  0.000000e+000
    outer loop
      vertex  0.000000e+000  0.000000e+000  1.000000e+001
      vertex -2.042810e-014 -1.000000e+002  0.000000e+000
      vertex  0.000000e+000  0.000000e+000  0.000000e+000
    endloop
  endfacet
  facet normal  0.000000e+000 -1.000000e+000  -0.000000e+000
    outer loop
      vertex -2.042810e-014 -1.000000e+002  0.000000e+000
      vertex -2.042810e-014 -1.000000e+002  1.000000e+001
      vertex -5.000000e+000 -1.000000e+002  0.000000e+000
    endloop
  endfacet
  facet normal  0.000000e+000 -1.000000e+000  0.000000e+000
    outer loop
      vertex -5.000000e+000 -1.000000e+002  0.000000e+000
      vertex -2.042810e-014 -1.000000e+002  1.000000e+001
      vertex -5.000000e+000 -1.000000e+002  1.000000e+001
    endloop
  endfacet
  facet normal -1.000000e+000  -0.000000e+000  0.000000e+000
    outer loop
      vertex -5.000000e+000 -1.000000e+002  1.000000e+001
      vertex -5.000000e+000 -3.000000e+001  1.000000e+001
      vertex -5.000000e+000 -1.000000e+002  0.000000e+000
    endloop
  endfacet
  facet normal -1.000000e+000  0.000000e+000  0.000000e+000
    outer loop
      vertex -5.000000e+000 -1.000000e+002  0.000000e+000
      vertex -5.000000e+000 -3.000000e+001  1.000000e+001
      vertex -5.000000e+000 -3.000000e+001  0.000000e+000
    endloop
  endfacet
  facet normal -7.071067e-001 -7.071067e-001  0.000000e+000
    outer loop
      vertex -3.000000e+001 -5.000000e+000  1.000000e+001
      vertex -3.000000e+001 -5.000000e+000  0.000000e+000
      vertex -5.000000e+000 -3.000000e+001  1.000000e+001
    endloop
  endfacet
  facet normal -7.071067e-001 -7.071067e-001  -0.000000e+000
    outer loop
      vertex -5.000000e+000 -3.000000e+001  1.000000e+001
      vertex -3.000000e+001 -5.000000e+000  0.000000e+000
      vertex -5.000000e+000 -3.000000e+001  0.000000e+000
    endloop
  endfacet
  facet normal  0.000000e+000 -1.000000e+000  0.000000e+000
    outer loop
      vertex -3.000000e+001 -5.000000e+000  1.000000e+001
      vertex -1.000000e+002 -5.000000e+000  1.000000e+001
      vertex -3.000000e+001 -5.000000e+000  0.000000e+000
    endloop
  endfacet
  facet normal  0.000000e+000 -1.000000e+000  0.000000e+000
    outer loop
      vertex -3.000000e+001 -5.000000e+000  0.000000e+000
      vertex -1.000000e+002 -5.000000e+000  1.000000e+001
      vertex -1.000000e+002 -5.000000e+000  0.000000e+000
    endloop
  endfacet
  facet normal -1.000000e+000  0.000000e+000  0.000000e+000
    outer loop
      vertex -1.000000e+002  9.769963e-015  0.000000e+000
      vertex -1.000000e+002 -5.000000e+000  0.000000e+000
      vertex -1.000000e+002  9.769963e-015  1.000000e+001
    endloop
  endfacet
  facet normal -1.000000e+000  -0.000000e+000  0.000000e+000
    outer loop
      vertex -1.000000e+002  9.769963e-015  1.000000e+001
      vertex -1.000000e+002 -5.000000e+000  0.000000e+000
      vertex -1.000000e+002 -5.000000e+000  1.000000e+001
    endloop
  endfacet
endsolid CATIA STL
